<svg version="1.1" id="Layer_1" xmlns="http://www.w3.org/2000/svg" x="0px" y="0px" viewBox="0 0 581.1 581.1" xml:space="preserve"><style>.st0{fill:#231f20}.st3{fill:#fff}</style><path class="st3" d="M573.7,486.4h-12.3V384.3h-77.8v42h-14.9l-14.8-12.7c-14.7-12.5-27.3-19.4-39.3-22.9 c36.1-28.2,62.5-68.5,72.9-114.7l3.9-48.6l26.3-18l1.2-2.7c8.2-17.9,27.3-59.9,27.8-104.3c0.3-22.6-8.4-44-24.4-60.2 c-16.2-16.4-37.9-25.5-60.9-25.5c-29.4,0-56.1,15.4-71.5,39c-14.7-8.3-30.4-14.8-46.8-19.2c-34.3-9.3-70.9-9.2-105.1,0 c-16.4,4.4-32.1,10.9-46.8,19.2c-15.4-23.5-42.1-39-71.5-39c-23.1,0-44.7,9-60.9,25.5c-16,16.2-24.7,37.6-24.4,60.2 c0.5,44.4,19.7,86.4,27.8,104.3l1.8,4l24.5,16.8l3.2,38.9c8.3,47.5,33.2,89.3,68.5,119.2c-3-0.7-6.2-1.2-9.4-1.2 c-12.6,0-23.8,5.8-31.2,14.9c-12.7-7.8-28.6-12.1-46.8-12.1H7.1v177.3h70.7V550l14.4,14.4H112h69.9h6.2v-11.2l10,10 c4.1,0.8,8.4,1.2,12.8,1.2c17.4,0,32.3-5.9,43.5-16.1c8.9,10.4,22.4,16.1,39.7,16.1c8.6,0,18.3-2.1,30.5-6.6l16.8-6.2 c13.3,8.2,29.3,12.8,47.4,12.8c7.6,0,15.1-0.9,22.5-2.6l8.6-8.6v11.2h77.7v-21.8c11.5,13.9,29.4,21.8,51.8,21.8H574V511 L573.7,486.4z"/><path class="st0" d="M310.2 346.9l-35.7-8.4c-5-1.2-10.1 1.9-11.3 7-1.2 5 1.9 10.1 7 11.3l35.7 8.4c.7.2 1.4.3 2.2.3 4.3 0 8.1-2.9 9.1-7.2C318.3 353.2 315.2 348.1 310.2 346.9zM191.2 239.5l-12.5-5.8c-4.7-2.2-10.3-.1-12.5 4.6-2.2 4.7-.1 10.3 4.6 12.5l11.5 5.3c-.9 4.5-.7 9.3.6 14.1 4.6 16.5 21.7 26.1 38.2 21.5 13.1-3.7 21.8-15.2 22.6-28L191.2 239.5C191.2 239.5 191.2 239.5 191.2 239.5zM407.4 233.7l-12.5 5.8c0 0 0 0 0 0l-52.4 24.2c.8 12.8 9.5 24.3 22.6 28 16.5 4.6 33.6-5 38.2-21.5 1.3-4.8 1.5-9.6.6-14.1l11.5-5.3c4.7-2.2 6.8-7.7 4.6-12.5C417.7 233.6 412.1 231.6 407.4 233.7z"/><path class="st0" d="M461.4,41.3c-30.5,0-55.7,22.5-60.1,51.7c-2.3-1.9-4.7-3.7-7.1-5.4c-17.1-12.4-36.6-21.7-57.5-27.4 c-14.7-4-30.2-6.1-46.1-6.1c-16,0-31.5,2.1-46.2,6.1C220.5,66.6,198.6,78,179.8,93c-4.4-29.3-29.7-51.8-60.1-51.8 c-33.5,0-61.2,27.3-60.8,60.8c0.4,38.4,17.4,76.3,25.6,94.4c8-30.6,19.7-33.5,35.2-33.5c2.5,0,5.1-0.2,7.5-0.5 c-3.5,8.2-6.4,16.8-8.6,25.6c-1.5,6-2.7,12.2-3.6,18.4c0,0.3-0.1,0.7-0.1,1c-1.1,7.8-1.6,15.8-1.6,24 c0,97.8,79.6,177.4,177.4,177.4c97.8,0,177.4-79.6,177.4-177.4c0-8.1-0.6-16.1-1.6-24c-1-7.5-2.5-14.8-4.4-22 c-2.1-7.6-4.6-15.1-7.6-22.3c-0.1-0.3-0.2-0.5-0.3-0.8c2.5,0.3,5,0.5,7.5,0.5c15.5,0,27.2,3,35.2,33.5 c8.3-18.1,25.2-56,25.6-94.4C522.7,68.5,495,41.3,461.4,41.3z M290.6,392.6c-88.8,0-161.1-72.3-161.1-161.1 c0-2.5,0.1-4.9,0.2-7.3l90-16.6l24.3-33.6l9.6,33.6l129.4,8.1c-0.4-2.4-0.8-5.3-1.2-8.1c-0.9-5.7-1.7-11-1.7-11l7.8,11l6.2,8.8 l57.4,3.6c0.3,3.8,0.4,7.7,0.4,11.6C451.7,320.3,379.4,392.6,290.6,392.6z"/><g><path class="st0" d="M31.6 539.9V411.6h41.1c29.7 0 54.6 15.2 54.6 47.6 0 17.5-8.7 31.5-21.9 40.1 5.6 12.1 13.5 21.9 27.5 40.6H99c-8-8-11.5-12.9-22.6-32.9-5.6.5-11.2.3-14.2.2v32.7H31.6zM73.6 476.4c11.2 0 22.9-5.1 22.9-17.1 0-11.5-11-17-23.8-17H62.2v34.1H73.6zM135.1 424.4c0-8.7 7.2-15.6 15.6-15.6 8.2 0 15.6 6.8 15.6 15.6 0 7.7-7.3 15.4-15.6 15.4C142.3 439.8 135.1 432.1 135.1 424.4zM136.5 539.9v-89h28.7v89H136.5zM211 450.8c27.3 0 40.2 20.1 40.2 45 0 24.7-13.6 44.1-40.2 44.1s-40.1-19.4-40.1-44.1C170.9 470.9 183.7 450.8 211 450.8zM210.8 479.7c-7.5 0-10.7 7.7-10.7 16.1 0 8.9 3.7 15.2 11.2 15.2s10.7-6.8 10.7-15.2C222 486.8 218.3 479.7 210.8 479.7zM295.7 430.9v20h24.5v26.4h-24.5v32.4c0 2.1.7 4 5.8 4 4.7-.5 7.7-2.5 8.9-2.3l5.8 23.4c-10 3.7-17 5.1-22 5.1-20.1 0-27.5-10.3-27.5-29.9v-32.7h-14.5v-24l14.7-1.2 3.5-21.2H295.7zM326.8 476c0-35.5 22.2-64.4 60.7-64.4 16.4 0 30.3 3.3 50.6 20.6l-20.5 20.8c-13.1-11.7-21.2-11.2-30.1-11.2-18.9 0-30.1 14.7-30.1 34.1 0 19.2 11.4 33.6 31.5 33.6 7 0 13.8-.9 18.5-2.8l1.7-33.2h30.4l-1.9 49.5c-15.9 11.7-32.7 16.8-48.8 16.8C349.7 539.9 326.8 513.1 326.8 476zM503.7 479.9c-18.4 0-30.1 12.4-30.6 26.8v33.2h-28.9v-89h25.9l1.9 15c2.6-3.3 5.8-6.1 9.1-8.4 6.5-4.4 14-6.6 22.6-6.6V479.9zM549.5 539.9c-19.4 0-41.3-8-41.3-39.9v-91.1h28.7V500c0 8.2 4.7 11 12.6 11V539.9z"/></g></svg>